#!OML:ASF \\Waltz\H\Terrain\Patient Classification 1\Animal2\Wednesday\Animal2.ASF
:FULLY-SPECIFIED
:DEGREES
1296
root 10.9449 17.2373 -8.57016 14.0309 -3.02395 -4.10846
lowerback 13.5037 -4.53901 -0.528217
upperback 2.35362 -5.97619 1.60912
thorax -4.82437 -2.92186 3.0131
lowerneck 7.22281 8.71105 15.1485
upperneck -25.6583 9.24319 -24.7276
head -6.61593 5.563 -11.8069
rclavicle -5.96354e-015 6.36111e-015
rhumerus -38.9245 10.8761 -79.5285
rradius 120.216
rwrist 15.6281
rhand -3.62839 27.6226
rfingers 7.12502
rthumb 22.1108 -1.13315
lclavicle -5.96354e-015 6.36111e-015
lhumerus -35.6341 -2.06039 67.9632
lradius 122.255
lwrist 29.5801
lhand -35.9704 26.1976
lfingers 7.12502
lthumb -9.0812 55.9821
rfemur -44.2037 -0.622914 19.5618
rtibia 72.952
rfoot -17.3612 -11.5725
rtoes 29.7215
lfemur -23.6047 0.719169 -16.1928
ltibia 47.582
lfoot -22.4018 -10.8267
ltoes -6.66569
1297
root 10.9544 17.1916 -8.70439 14.202 -3.08582 -4.17501
lowerback 13.3345 -4.51829 -0.739425
upperback 2.10348 -5.97941 1.62947
thorax -4.97156 -2.91619 3.151
lowerneck 7.15676 8.4211 14.9537
upperneck -26.1266 8.79103 -24.3555
head -6.89837 5.31304 -11.6956
rclavicle -3.69739e-014 -3.97569e-015
rhumerus -39.0431 10.0073 -78.8124
rradius 120.336
rwrist 14.4816
rhand -1.08894 28.0953
rfingers 7.12502
rthumb 24.547 -0.351176
lclavicle -3.69739e-014 -3.97569e-015
lhumerus -36.077 -1.78046 67.7643
lradius 122.05
lwrist 30.0745
lhand -36.1178 26.1254
lfingers 7.12502
lthumb -9.22349 55.9037
rfemur -43.1845 -1.21168 19.6149
rtibia 73.7472
rfoot -18.3969 -12.503
rtoes 29.9132
lfemur -24.4114 1.16682 -16.4477
ltibia 48.0024
lfoot -24.4402 -9.43585
ltoes -7.96672
1298
root 10.9642 17.0981 -8.83828 14.3477 -3.2319 -4.01641
lowerback 12.9757 -4.44892 -1.082
upperback 1.89643 -5.94306 1.53807
thorax -4.96995 -2.89265 3.21792
lowerneck 7.36175 8.02427 14.4633
upperneck -26.9262 8.18921 -23.6955
head -7.4149 4.99871 -11.4825
rclavicle 6.24184e-014 -1.19271e-014
rhumerus -39.1743 8.91566 -77.8803
rradius 120.521
rwrist 13.7354
rhand 2.04971 29.0363
rfingers 7.12502
rthumb 27.5521 1.03269
lclavicle 6.24184e-014 -1.19271e-014
lhumerus -36.3766 -1.47858 67.3578
lradius 121.922
lwrist 30.6332
lhand -36.258 26.6768
lfingers 7.12502
lthumb -9.35872 56.449
rfemur -42.294 -1.95836 19.3383
rtibia 74.5789
rfoot -18.9894 -13.2372
rtoes 29.0755
lfemur -25.1411 1.56527 -16.9642
ltibia 48.4352
lfoot -26.3336 -8.17513
ltoes -8.94512
1299
root 10.9751 17.004 -8.96989 14.5066 -3.21794 -4.08722
lowerback 12.5552 -4.42607 -1.04557
upperback 1.71497 -5.91342 1.45875
thorax -4.9438 -2.87937 3.0823
lowerneck 7.53159 7.5984 14.039
upperneck -27.7425 7.57966 -22.9378
head -7.93553 4.66152 -11.2358
rclavicle -6.12257e-014 3.57812e-014
rhumerus -39.3506 7.74941 -76.8343
rradius 120.796
rwrist 13.1684
rhand 5.31012 30.0451
rfingers 7.12502
rthumb 30.6657 2.58046
lclavicle -6.12257e-014 3.57812e-014
lhumerus -36.447 -1.14332 66.5817
lradius 121.881
lwrist 31.345
lhand -35.9922 27.3471
lfingers 7.12502
lthumb -9.10229 57.1307
rfemur -41.2425 -2.72154 19.3091
rtibia 75.1241
rfoot -19.2972 -13.847
rtoes 28.4136
lfemur -25.8173 1.75759 -17.0541
ltibia 48.7569
lfoot -28.159 -7.18544
ltoes -8.84605
1300
root 10.9849 16.9147 -9.09455 14.552 -3.11348 -4.25492
lowerback 12.3358 -4.44464 -0.934044
upperback 1.47972 -5.92531 1.44109
thorax -5.08329 -2.88342 2.99816
lowerneck 7.18019 7.22686 13.9061
upperneck -27.834 7.10773 -22.2641
head -8.05762 4.3539 -10.9429
rclavicle -2.38542e-015 1.19271e-014
rhumerus -39.7769 6.62932 -75.6398
rradius 121.188
rwrist 12.7421
rhand 8.5497 31.3032
rfingers 7.12502
rthumb 33.7495 4.46415
lclavicle -2.38542e-015 1.19271e-014
lhumerus -36.4528 -0.586746 65.3388
lradius 121.815
lwrist 31.8199
lhand -35.2372 28.2114
lfingers 7.12502
lthumb -8.37368 58.0254
rfemur -39.8447 -3.38972 19.3591
rtibia 75.4493
rfoot -19.7747 -14.3751
rtoes 27.5865
lfemur -26.4324 1.7942 -16.9363
ltibia 49.1664
lfoot -29.9181 -6.42109
ltoes -8.42036
1301
root 10.9933 16.836 -9.21156 14.4242 -2.96511 -4.25508
lowerback 12.2011 -4.44199 -1.07938
upperback 1.30871 -5.93853 1.5143
thorax -5.16559 -2.88421 3.15453
lowerneck 6.65642 6.75973 13.7303
upperneck -27.6566 6.45629 -21.7702
head -8.07886 3.97774 -10.6684
rclavicle -1.11319e-014 2.8625e-014
rhumerus -40.0065 5.77414 -74.0042
rradius 121.528
rwrist 12.5225
rhand 11.6369 32.6063
rfingers 7.12502
rthumb 36.6772 6.4591
lclavicle -1.11319e-014 2.8625e-014
lhumerus -36.4391 -0.0815471 64.1463
lradius 121.857
lwrist 32.459
lhand -34.9395 28.7568
lfingers 7.12502
lthumb -8.08636 58.582
rfemur -38.1173 -4.17089 19.1836
rtibia 75.4963
rfoot -20.2574 -14.9106
rtoes 26.4519
lfemur -26.8785 1.76874 -16.9947
ltibia 49.6309
lfoot -31.4407 -5.87445
ltoes -8.53233
1302
root 11.0009 16.7724 -9.32372 14.233 -2.828 -4.23769
lowerback 12.09 -4.41534 -1.25092
upperback 1.13442 -5.92195 1.61254
thorax -5.26075 -2.86889 3.34939
lowerneck 6.47896 6.19058 13.4616
upperneck -27.7848 5.65319 -21.2623
head -8.30199 3.54853 -10.4248
rclavicle -1.29608e-013 1.51076e-014
rhumerus -40.2087 5.57236 -72.0973
rradius 121.862
rwrist 12.5904
rhand 13.8024 33.236
rfingers 7.12502
rthumb 38.7232 7.63722
lclavicle -1.29608e-013 1.51076e-014
lhumerus -36.4998 0.182017 62.9357
lradius 122.143
lwrist 33.2945
lhand -35.5901 29.4307
lfingers 7.12502
lthumb -8.71425 59.2308
rfemur -36.1928 -4.92567 18.9695
rtibia 75.2615
rfoot -20.5787 -15.5791
rtoes 26.8984
lfemur -27.3641 1.78827 -17.0563
ltibia 50.2481
lfoot -32.3878 -5.34726
ltoes -8.76202
1303
root 11.0031 16.7197 -9.43494 14.0641 -2.73461 -4.16916
lowerback 12.0261 -4.40826 -1.49191
upperback 0.921788 -5.94443 1.64446
thorax -5.42034 -2.86919 3.52645
lowerneck 6.14166 5.65899 13.2711
upperneck -27.808 4.94439 -20.6239
head -8.43646 3.13991 -10.1183
rclavicle -5.80451e-014 3.33958e-014
rhumerus -41.0853 5.76708 -70.1782
rradius 122.634
rwrist 12.8194
rhand 15.054 33.8359
rfingers 7.12502
rthumb 39.9025 8.58051
lclavicle -5.80451e-014 3.33958e-014
lhumerus -36.5698 0.704186 61.3487
lradius 122.42
lwrist 33.8272
lhand -36.5871 29.972
lfingers 7.12502
lthumb -9.67627 59.7297
rfemur -34.1496 -5.48285 18.7117
rtibia 74.7544
rfoot -21.3229 -16.2061
rtoes 27.6447
lfemur -28.0466 1.95975 -17.1536
ltibia 51.0372
lfoot -32.6191 -4.79122
ltoes -9.37521
1304
root 11.0023 16.6807 -9.54773 14.0347 -2.60531 -4.07286
lowerback 11.7751 -4.45162 -1.75727
upperback 0.734689 -6.03279 1.72972
thorax -5.43584 -2.90456 3.76314
lowerneck 5.54508 5.16605 13.0604
upperneck -27.6324 4.24668 -20.1302
head -8.43573 2.74622 -9.82546
rclavicle -1.70955e-014 3.18055e-015
rhumerus -40.0071 5.95524 -68.1451
rradius 122.497
rwrist 12.7872
rhand 16.8967 34.5237
rfingers 7.12502
rthumb 41.6339 9.81219
lclavicle -1.70955e-014 3.18055e-015
lhumerus -36.582 1.65768 59.571
lradius 122.555
lwrist 34.097
lhand -37.0713 29.5336
lfingers 7.12502
lthumb -10.1434 59.2691
rfemur -32.203 -6.1266 18.4185
rtibia 73.9559
rfoot -22.1358 -16.3157
rtoes 28.7245
lfemur -29.0247 2.18567 -17.2466
ltibia 51.912
lfoot -32.4964 -4.2774
ltoes -11.0174
1305
root 11.0061 16.6619 -9.64758 13.9941 -2.56172 -4.2195
lowerback 11.4058 -4.47909 -1.63278
upperback 0.544913 -6.04664 1.83346
thorax -5.43115 -2.91293 3.78108
lowerneck 5.36549 4.66206 12.8495
upperneck -27.8797 3.53211 -19.6612
head -8.6578 2.36194 -9.60359
rclavicle -8.07066e-014 -3.97569e-015
rhumerus -40.1779 5.90514 -66.1332
rradius 123.115
rwrist 12.4291
rhand 18.3757 35.371
rfingers 7.12502
rthumb 43.019 11.1318
lclavicle -8.07066e-014 -3.97569e-015
lhumerus -36.5693 2.50369 57.6001
lradius 122.802
lwrist 34.4834
lhand -37.0022 29.2738
lfingers 7.12502
lthumb -10.0767 59.0125
rfemur -30.1134 -6.80686 18.2924
rtibia 72.8403
rfoot -22.4936 -16.1235
rtoes 30.5359
lfemur -29.8923 2.56138 -17.0948
ltibia 52.7203
lfoot -32.4643 -3.85026
ltoes -14.1026
1306
root 11.009 16.656 -9.73843 13.8142 -2.63536 -4.45356
lowerback 11.1643 -4.47199 -1.35931
upperback 0.363527 -5.99972 1.88373
thorax -5.51387 -2.89318 3.664
lowerneck 5.46053 4.15274 12.6095
upperneck -28.5237 2.84402 -18.9974
head -9.07262 1.98281 -9.34716
rclavicle 9.34288e-015 -3.02153e-014
rhumerus -41.3367 5.20286 -64.3097
rradius 124.072
rwrist 11.9881
rhand 19.604 36.4707
rfingers 7.12502
rthumb 44.166 12.6501
lclavicle 9.34288e-015 -3.02153e-014
lhumerus -36.5472 3.2991 55.4337
lradius 123.157
lwrist 34.7072
lhand -37.1911 29.7552
lfingers 7.12502
lthumb -10.259 59.485
rfemur -27.8098 -7.40097 18.2271
rtibia 71.4783
rfoot -22.7638 -16.1823
rtoes 31.9683
lfemur -30.3697 3.10903 -16.8579
ltibia 53.3182
lfoot -32.5195 -3.58787
ltoes -17.26
1307
root 11.0072 16.6583 -9.83284 13.5678 -2.84703 -4.70077
lowerback 11.0587 -4.43874 -1.19343
upperback 0.187251 -5.92922 1.99156
thorax -5.65091 -2.85738 3.6759
lowerneck 5.45206 3.63858 12.3686
upperneck -28.9709 2.12824 -18.456
head -9.39565 1.6007 -9.10442
rclavicle 3.97569e-014 5.56597e-015
rhumerus -41.2436 5.77911 -62.0929
rradius 124.661
rwrist 11.0376
rhand 19.8055 36.4733
rfingers 7.12502
rthumb 44.3539 12.7237
lclavicle 3.97569e-014 5.56597e-015
lhumerus -36.688 4.29712 53.1374
lradius 123.504
lwrist 34.5556
lhand -37.803 30.2451
lfingers 7.12502
lthumb -10.8492 59.9449
rfemur -25.4971 -7.89539 18.1788
rtibia 69.9267
rfoot -22.9381 -16.3651
rtoes 33.1047
lfemur -30.5996 3.78644 -16.6021
ltibia 53.6255
lfoot -32.4341 -3.40641
ltoes -19.4559
1308
root 11.0124 16.6754 -9.91573 13.2035 -3.3814 -4.95856
lowerback 10.9565 -4.30822 -1.02949
upperback 0.0528321 -5.72866 2.11574
thorax -5.75201 -2.75885 3.68462
lowerneck 5.34076 3.11226 12.1915
upperneck -29.1004 1.36119 -18.1715
head -9.58043 1.21365 -8.93028
rclavicle -6.85807e-014 3.26007e-014
rhumerus -41.0419 6.35395 -59.6322
rradius 125.243
rwrist 10.0248
rhand 19.6479 36.602
rfingers 7.12502
rthumb 44.2069 12.7967
lclavicle -6.85807e-014 3.26007e-014
lhumerus -36.8708 5.36003 50.7969
lradius 123.826
lwrist 34.3444
lhand -38.373 30.4091
lfingers 7.12502
lthumb -11.399 60.0792
rfemur -22.9912 -8.41075 17.9513
rtibia 68.1316
rfoot -22.665 -16.5234
rtoes 33.5153
lfemur -30.4335 4.61922 -16.4152
ltibia 53.6133
lfoot -32.2236 -3.11044
ltoes -21.0381
1309
root 11.0236 16.7148 -9.98944 12.935 -4.17701 -5.21524
lowerback 10.6253 -4.13366 -0.800239
upperback -0.0302765 -5.46433 2.20971
thorax -5.68338 -2.63601 3.59227
lowerneck 5.26508 2.64754 12.0503
upperneck -29.3344 0.66767 -17.9428
head -9.79134 0.865302 -8.79453
rclavicle -4.87022e-014 1.98785e-014
rhumerus -40.3518 6.69032 -57.1535
rradius 125.612
rwrist 9.09137
rhand 19.9321 36.4299
rfingers 7.12502
rthumb 44.4719 12.7252
lclavicle -4.87022e-014 1.98785e-014
lhumerus -37.0609 6.62258 48.3485
lradius 124.027
lwrist 34.0403
lhand -38.6938 30.6555
lfingers 7.12502
lthumb -11.7084 60.3083
rfemur -20.6347 -8.97185 17.5753
rtibia 66.2427
rfoot -22.1545 -16.448
rtoes 34.7765
lfemur -30.1521 5.53415 -16.2846
ltibia 53.3806
lfoot -31.9709 -2.6772
ltoes -22.667
1310
root 11.0302 16.7709 -10.0694 12.8579 -5.0786 -5.57891
lowerback 10.2026 -4.02508 -0.462032
upperback -0.166063 -5.2778 2.28219
thorax -5.62464 -2.55416 3.42468
lowerneck 5.61757 2.32787 11.9122
upperneck -30.0098 0.22866 -17.5504
head -10.2067 0.633212 -8.66116
rclavicle 2.52457e-014 -2.94201e-014
rhumerus -39.2085 7.03912 -55.0163
rradius 125.807
rwrist 8.16429
rhand 20.459 36.12
rfingers 7.12502
rthumb 44.9624 12.6056
lclavicle 2.52457e-014 -2.94201e-014
lhumerus -37.4698 7.95396 45.5177
lradius 124.224
lwrist 33.8049
lhand -39.3156 31.17
lfingers 7.12502
lthumb -12.3079 60.7878
rfemur -18.6018 -9.3616 17.3627
rtibia 64.2749
rfoot -21.9376 -15.7463
rtoes 37.3449
lfemur -29.9401 6.31919 -16.0132
ltibia 52.8523
lfoot -31.5265 -2.09522
ltoes -24.2453
